<svg xmlns="http://www.w3.org/2000/svg" width="1024" height="576" viewBox="0 0 1024 576">
  <defs>
    <linearGradient id="bg" x1="0" y1="0" x2="1" y2="1"><stop stop-color="#07111f"/><stop offset="1" stop-color="#123a54"/></linearGradient>
  </defs>
  <rect width="1024" height="576" fill="url(#bg)"/>
  <rect x="38" y="42" width="948" height="492" rx="24" fill="rgba(0,0,0,.32)" stroke="#ffd45a" stroke-width="4"/>
  <text x="512" y="102" text-anchor="middle" font-family="Arial" font-size="48" font-weight="700" fill="#fff">Linha do Tempo das Copas</text>
  <line x1="112" y1="292" x2="912" y2="292" stroke="#ffd45a" stroke-width="8" stroke-linecap="round"/>
  <g font-family="Arial" text-anchor="middle" font-size="18" fill="#fff">
    <g><circle cx="142" cy="292" r="28" fill="#38bdf8"/><text x="142" y="352">1930</text><text x="142" y="382">Uruguai</text></g>
    <g><circle cx="298" cy="292" r="28" fill="#16a34a"/><text x="298" y="352">1970</text><text x="298" y="382">Brasil tri</text></g>
    <g><circle cx="456" cy="292" r="28" fill="#f97316"/><text x="456" y="352">1994</text><text x="456" y="382">pênaltis</text></g>
    <g><circle cx="614" cy="292" r="28" fill="#22c55e"/><text x="614" y="352">2002</text><text x="614" y="382">Ásia</text></g>
    <g><circle cx="770" cy="292" r="28" fill="#60a5fa"/><text x="770" y="352">2026</text><text x="770" y="382">48 seleções</text></g>
    <g><circle cx="892" cy="292" r="28" fill="#ef4444"/><text x="892" y="352">2030+</text><text x="892" y="382">centenário</text></g>
  </g>
  <text x="512" y="464" text-anchor="middle" font-family="Arial" font-size="24" fill="#dbeafe">1930-2022: 22 edições concluídas. Próximas sedes confirmadas: 2026, 2030 e 2034.</text>
</svg>
